<?xml version='1.0' encoding='utf-8'?>
<svg xmlns="http://www.w3.org/2000/svg" clip-rule="evenodd" fill-rule="evenodd" image-rendering="optimizeQuality" shape-rendering="geometricPrecision" text-rendering="geometricPrecision" version="1.1" viewBox="0 0 7016 4961">
 <defs>
  <style type="text/css">
   
    .str0 {stroke:black;stroke-width:0.900032}
    .fil0 {fill:none}
    .fil4 {fill:black}
    .fil1 {fill:black}
    .fil3 {fill:white}
    .fil2 {fill:white}
    .fil5 {fill:#E31E24;fill-rule:nonzero}
   
  </style>
 </defs>
   <rect class="fil0" x="3" width="7013" height="4961"/>
   <path class="fil1" d="m3515 306c1221 0 2210 989 2210 2210s-989 2210-2210 2210-2211-989-2211-2210 990-2210 2211-2210z"/>
   <path class="fil2 str0" d="m3515 673c1017 0 1842 825 1842 1843s-825 1843-1842 1843c-1018 0-1843-825-1843-1843s825-1843 1843-1843z"/>
   <polygon class="fil2" points="1304 2522 1304 2510 5725 2510 5725 2522"/>
   <path class="fil3 str0" d="m2269 3751c-126-126-232-272-314-432l-64 33c86 166 197 318 328 449l50-50z"/>
   <path class="fil3 str0" d="m1780 2783c-13-87-20-176-20-267s7-180 20-267l-70-11c-14 91-21 183-21 278s7 187 21 278l70-11z"/>
   <path class="fil3 str0" d="m1955 1713c82-160 188-306 314-432l-50-50c-131 131-242 283-328 449l64 33z"/>
   <path class="fil3 str0" d="m1961 3299l515-262c-51-103-88-215-107-332l-571 91c29 178 85 347 163 503z"/>
   <path class="fil3 str0" d="m1798 2236l571 91c19-118 56-229 107-332l-515-262c-78 156-134 325-163 503z"/>
   <path class="fil4 str0" d="m1783 2234c29-180 85-351 165-508l-64-32c-82 164-141 341-171 529l70 11z"/>
   <path class="fil4 str0" d="m1948 3306c-80-157-136-328-165-508l-70 11c30 188 89 365 171 529l64-32z"/>
   <path class="fil4 str0" d="m2711 4076c-159-82-305-189-431-314l-51 50c132 131 284 241 450 327l32-63z"/>
   <path class="fil4 str0" d="m2688 1700l-408-408c-125 125-230 269-312 427l515 263c54-104 124-199 205-282z"/>
   <path class="fil4 str0" d="m2366 2342l-570-91c-14 87-20 175-20 265s6 178 20 265l570-91c-8-57-13-115-13-174s5-117 13-174z"/>
   <path class="fil4 str0" d="m2483 3050l-515 262c82 159 187 303 312 428l408-408c-81-83-151-178-205-282z"/>
   <path class="fil4 str0" d="m2280 1270c126-125 272-232 431-314l-32-63c-166 85-318 196-450 327l51 50z"/>
   <path class="fil2" d="m1844 3595v241h-60v-129c0-19 0-30-1-34s-4-7-8-8c-4-2-13-3-26-3h-6v-28c29-6 51-19 66-39h35zm168 65h-60c0-12 0-19-1-22 0-3-1-5-3-7-3-2-5-3-9-3-3 0-6 1-8 3s-3 4-3 7c-1 3-1 9-1 18v38c3-6 8-11 14-14s13-5 22-5c11 0 21 3 29 9 9 6 14 13 16 21 2 9 4 20 4 34v19c0 17-1 30-2 38-2 8-5 16-11 23-5 7-13 12-23 16s-21 6-34 6c-16 0-29-3-40-7-10-5-18-11-23-19-6-9-9-17-10-27-1-9-2-27-2-53v-34c0-28 1-47 2-57 0-10 4-19 10-27 6-9 14-16 25-20 10-4 22-6 36-6 17 0 31 2 41 8 11 5 19 13 24 23 4 10 7 22 7 38zm-60 74c0-8-1-14-3-17s-5-5-10-5c-4 0-7 2-9 5s-3 9-3 17v44c0 10 1 17 3 21 2 3 5 4 9 4 3 0 6-1 8-3 3-3 5-10 5-21v-45z"/>
   <path class="fil2" d="m1628 3121c8 3 15 9 20 16s7 24 7 50c0 20-2 34-5 43-4 10-12 17-22 23-11 6-26 9-44 9s-32-3-43-9c-10-5-18-13-22-22-5-9-7-25-7-47 0-14 1-27 3-37 3-11 10-20 21-26-7-4-12-9-16-17s-6-18-6-30c0-21 6-36 18-46 11-11 28-16 51-16 27 0 45 6 55 17s15 26 15 47c0 13-2 22-5 28-3 5-10 11-20 17zm-34-52c0-8-1-13-2-16-2-3-4-4-9-4-4 0-6 2-8 4-1 3-2 8-2 16v18c0 8 1 13 3 16 1 2 4 4 8 4s6-2 8-4c1-3 2-9 2-17v-17zm1 100c0-9-1-15-3-18s-5-5-9-5-7 2-8 5c-2 3-3 9-3 18v31c0 11 1 17 3 20s5 5 9 5c5 0 7-2 9-5 1-3 2-10 2-20v-31z"/>
   <path class="fil2" d="m1480 2396v240h-60v-129c0-19 0-30-1-34-1-3-3-6-7-8s-13-3-27-3h-6v-28c29-6 51-19 66-38h35zm116 0v240h-60v-129c0-19 0-30-1-34-1-3-3-6-7-8s-13-3-27-3h-6v-28c29-6 51-19 66-38h35z"/>
   <path class="fil2" d="m1550 1751v241h-60v-129c0-19-1-30-2-34s-3-7-7-9-13-3-27-3h-6v-27c29-7 51-19 66-39h36zm146 0v157h17v42h-17v42h-60v-42h-72v-42l52-157h80zm-60 157v-102l-27 102h27z"/>
   <path class="fil2" d="m1798 1386h60v21c1 3 2 5 4 7s5 3 9 3c3 0 5-1 7-2 2-2 4-5 4-8v-56c-3 6-7 11-13 14-6 4-14 5-22 5-11 0-21-3-30-9-8-6-13-13-16-21-2-8-3-20-3-34v-19c0-17 1-29 2-38 1-8 5-16 10-22 6-7 13-13 23-17s22-6 34-6c17 0 30 3 40 7 10 5 18 11 24 19 6 9 9 18 10 27s1 27 1 53v34c0 28 0 48-1 57-1 10-4 19-10 28-6 8-15 15-25 19-11 4-23 7-36 7-17 0-31-3-42-9-11-5-18-13-23-23s-7-22-7-37zm60-75c0 10 1 16 4 19 3 2 5 3 8 3 4 0 7-1 9-4s3-9 3-18v-44c0-10-1-17-3-21-1-3-5-4-9-4-2 0-5 1-8 3-3 3-4 10-4 21v45z"/>
   <path class="fil2" d="m2304 750v241h-60v-129c0-19-1-30-1-34-1-4-4-7-8-9s-13-3-27-3h-5v-28c29-6 51-19 66-38h35zm153 200v41h-133l1-35c39-64 62-103 69-118 8-16 12-27 12-36 0-6-2-11-4-15-2-3-5-4-10-4s-8 1-10 5c-3 3-4 11-4 21v23h-54v-9c0-13 1-24 3-32 1-7 4-15 10-23 5-7 12-13 21-17s19-6 31-6c24 0 42 6 55 18 12 12 18 27 18 45 0 14-3 29-10 44s-28 48-61 98h66z"/>
   <polygon class="fil2" points="3509 306 3520 306 3520 4726 3509 4726"/>
   <path class="fil5 str0" d="m3558 2473c-11-11-26-18-43-18s-32 7-43 18-18 26-18 43 7 32 18 43 26 18 43 18 32-7 43-18 18-26 18-43-7-32-18-43z"/>
   <path class="fil4 str0" d="m3576 2516c0-17-7-32-18-43s-26-18-43-18-32 7-43 18-18 26-18 43 7 32 18 43 26 18 43 18 32-7 43-18 18-26 18-43z"/>
   <path class="fil4 str0" d="m3248 782c87-14 176-20 267-20s180 6 267 20l11-70c-91-14-184-21-278-21-95 0-188 7-278 21l11 70z"/>
   <path class="fil4 str0" d="m3515 1370c-59 0-116 4-172 13l11 70c52-8 106-12 161-12 54 0 108 4 160 12l12-70c-56-9-114-13-172-13z"/>
   <path class="fil4 str0" d="m4010 1561c96 50 183 114 260 189l50-50c-82-80-175-149-278-202l-32 63z"/>
   <path class="fil4 str0" d="m4476 2035c48 94 82 197 100 305l70-11c-19-116-56-225-106-327l-64 33z"/>
   <path class="fil4 str0" d="m4576 2692c-18 108-52 211-100 305l64 33c50-102 87-212 106-327l-70-11z"/>
   <path class="fil4 str0" d="m4270 3282c-77 75-164 139-260 189l32 63c103-53 196-122 278-202l-50-50z"/>
   <path class="fil4 str0" d="m3675 3579c-52 8-106 12-160 12-55 0-109-4-161-12l-11 70c56 9 113 13 172 13 58 0 116-4 172-13l-12-70z"/>
   <path class="fil4 str0" d="m3020 3471c-96-50-184-114-260-189l-50 50c81 80 175 149 278 202l32-63z"/>
   <path class="fil4 str0" d="m2553 2997c-47-94-81-197-99-305l-70 11c19 115 55 225 106 327l63-33z"/>
   <path class="fil4 str0" d="m2454 2340c18-108 52-211 99-305l-63-33c-51 102-87 211-106 327l70 11z"/>
   <path class="fil4 str0" d="m2760 1750c76-75 164-139 260-189l-32-63c-103 53-197 122-278 202l50 50z"/>
   <path class="fil3 str0" d="m3690 1455c109 18 211 52 306 99l32-63c-101-51-211-87-326-106l-12 70z"/>
   <path class="fil3 str0" d="m4280 1761c76 76 140 164 189 260l64-32c-54-103-122-196-202-278l-51 50z"/>
   <path class="fil3 str0" d="m4578 2355c8 53 12 106 12 161s-4 108-12 161l70 11c9-56 13-114 13-172s-4-116-13-172l-70 11z"/>
   <path class="fil3 str0" d="m4469 3011c-50 96-113 183-189 260l51 50c80-82 148-175 202-278l-64-32z"/>
   <path class="fil3 str0" d="m3996 3478c-95 47-197 81-306 99l12 70c115-19 225-55 326-106l-32-63z"/>
   <path class="fil3 str0" d="m3328 3647l11-70c-108-18-211-52-306-99l-32 63c101 51 211 87 327 106z"/>
   <path class="fil3 str0" d="m2749 3271c-75-77-139-164-189-260l-63 32c53 103 121 196 202 278l50-50z"/>
   <path class="fil3 str0" d="m2452 2677c-8-53-12-106-12-161s4-108 12-161l-71-11c-8 56-12 114-12 172s4 116 12 172l71-11z"/>
   <path class="fil3 str0" d="m2560 2021c50-96 114-183 189-260l-50-50c-81 82-149 175-202 278l63 32z"/>
   <path class="fil3 str0" d="m3033 1554c95-47 198-81 306-99l-11-70c-116 19-226 55-327 106l32 63z"/>
   <path class="fil3 str0" d="m3797 784c180 29 350 86 508 165l32-63c-164-83-342-142-529-172l-11 70z"/>
   <path class="fil3 str0" d="m4761 1281c125 126 231 272 314 432l63-33c-86-166-196-318-327-449l-50 50z"/>
   <path class="fil3 str0" d="m5249 2249c13 87 20 176 20 267s-7 180-20 267l70 11c14-91 21-183 21-278s-7-187-21-278l-70 11z"/>
   <path class="fil3 str0" d="m5075 3319c-83 160-189 306-314 432l50 50c131-131 241-283 327-449l-63-33z"/>
   <path class="fil3 str0" d="m4305 4083c-158 79-328 136-508 165l11 70c187-30 365-89 529-172l-32-63z"/>
   <path class="fil3 str0" d="m3233 4248c-180-29-351-86-508-165l-32 63c163 83 341 142 529 172l11-70z"/>
   <path class="fil3 str0" d="m2725 949c157-79 328-136 508-165l-11-70c-188 30-366 89-529 172l32 63z"/>
   <path class="fil3 str0" d="m3250 797l91 571c56-9 115-13 174-13s117 4 174 13l90-571c-86-13-174-20-264-20s-179 7-265 20z"/>
   <path class="fil3 str0" d="m3515 1456c-54 0-107 4-159 12l138 870c7-1 14-1 21-1s14 0 20 1l138-870c-52-8-104-12-158-12z"/>
   <path class="fil3 str0" d="m4311 970l-262 514c104 54 199 124 282 205l408-408c-125-124-269-230-428-311z"/>
   <path class="fil3 str0" d="m5068 1733l-515 262c52 103 89 214 108 332l571-91c-29-178-85-347-164-503z"/>
   <path class="fil3 str0" d="m5232 2796l-571-91c-19 117-56 229-108 332l515 262c79-156 135-325 164-503z"/>
   <path class="fil3 str0" d="m4739 3751l-408-408c-83 81-178 150-282 204l262 515c159-81 303-187 428-311z"/>
   <path class="fil3 str0" d="m3779 4235l-90-571c-57 9-115 13-174 13s-118-4-174-13l-91 571c86 13 175 20 265 20s178-7 264-20z"/>
   <path class="fil3 str0" d="m2718 4062l263-515c-104-54-199-123-282-204l-409 408c126 124 270 230 428 311z"/>
   <path class="fil3 str0" d="m2290 1281l409 408c83-81 178-151 282-205l-263-514c-158 81-302 187-428 311z"/>
   <path class="fil3 str0" d="m3027 1575c-95 49-181 112-256 186l623 623c10-9 21-17 33-24l-400-785z"/>
   <path class="fil3 str0" d="m3352 2442l-785-401c-47 94-81 195-98 302l870 138c3-14 7-27 13-39z"/>
   <path class="fil3 str0" d="m3339 2551l-870 138c17 107 51 208 98 301l785-400c-6-12-10-25-13-39z"/>
   <path class="fil3 str0" d="m3394 2648l-623 623c75 74 161 137 256 186l400-785c-12-7-23-15-33-24z"/>
   <path class="fil3 str0" d="m3494 2694l-138 870c52 8 105 12 159 12s106-4 158-12l-138-870c-6 1-13 1-20 1s-14 0-21-1z"/>
   <path class="fil3 str0" d="m3603 2672l400 785c94-49 181-112 256-186l-623-623c-10 9-21 17-33 24z"/>
   <path class="fil3 str0" d="m3678 2590l785 400c47-93 80-194 98-301l-871-138c-2 14-7 27-12 39z"/>
   <path class="fil3 str0" d="m3690 2481l871-138c-18-107-51-208-98-302l-785 401c5 12 10 25 12 39z"/>
   <path class="fil3 str0" d="m3636 2384l623-623c-75-74-162-137-256-186l-400 785c12 7 23 15 33 24z"/>
   <path class="fil4 str0" d="m3515 4270c-91 0-180-6-267-20l-11 70c90 14 183 21 278 21 94 0 187-7 278-21l-11-70c-87 14-176 20-267 20z"/>
   <path class="fil4 str0" d="m4750 3762c-127 125-272 232-432 314l32 63c167-86 318-196 450-327l-50-50z"/>
   <path class="fil4 str0" d="m5247 2798c-29 180-86 351-165 508l63 32c83-164 142-341 172-529l-70-11z"/>
   <path class="fil4 str0" d="m5082 1726c79 157 136 328 165 508l70-11c-30-188-89-365-172-529l-63 32z"/>
   <path class="fil4 str0" d="m4750 1270l50-50c-132-131-283-242-450-327l-32 63c160 82 305 189 432 314z"/>
   <path class="fil4 str0" d="m4035 1478l263-515c-156-79-325-135-504-164l-90 571c117 19 229 56 331 108z"/>
   <path class="fil4 str0" d="m3326 1370l-91-571c-178 29-347 85-503 164l262 515c103-52 214-89 332-108z"/>
   <path class="fil4 str0" d="m2994 3554l-262 515c156 79 325 135 503 164l91-571c-118-19-229-56-332-108z"/>
   <path class="fil4 str0" d="m3704 3662l90 571c179-29 348-85 504-164l-263-515c-102 52-214 89-331 108z"/>
   <path class="fil4 str0" d="m4341 3332l409 408c124-125 229-269 311-428l-515-262c-54 104-123 199-205 282z"/>
   <path class="fil4 str0" d="m4663 2690l571 91c13-87 20-175 20-265s-7-178-20-265l-571 91c9 57 13 115 13 174s-4 117-13 174z"/>
   <path class="fil4 str0" d="m4546 1982l515-263c-82-158-187-302-311-427l-409 408c82 83 151 178 205 282z"/>
   <path class="fil4 str0" d="m3479 2340l-138-870c-106 18-207 51-301 98l400 785c13-6 26-10 39-13z"/>
   <path class="fil4 str0" d="m3383 2395l-623-623c-74 75-137 161-186 256l785 400c7-12 15-23 24-33z"/>
   <path class="fil4 str0" d="m3337 2495l-870-137c-8 51-12 104-12 158s4 107 12 158l870-138c-1-6-1-13-1-20s0-14 1-21z"/>
   <path class="fil4 str0" d="m3359 2604l-785 400c49 95 112 181 186 256l623-623c-9-10-17-21-24-33z"/>
   <path class="fil4 str0" d="m3440 2679l-400 785c94 47 195 80 301 98l138-870c-13-3-26-8-39-13z"/>
   <path class="fil4 str0" d="m3550 2692l138 870c107-18 208-51 301-98l-400-785c-12 5-25 10-39 13z"/>
   <path class="fil4 str0" d="m3647 2637l623 623c74-75 137-161 186-256l-785-400c-7 12-15 23-24 33z"/>
   <path class="fil4 str0" d="m3693 2536l870 138c8-51 12-104 12-158s-4-107-12-158l-870 137c0 7 1 14 1 21s-1 14-1 20z"/>
   <path class="fil4 str0" d="m3671 2428l785-400c-49-95-112-181-186-256l-623 623c9 10 17 21 24 33z"/>
   <path class="fil4 str0" d="m3589 2353l400-785c-93-47-194-80-301-98l-138 870c14 3 27 7 39 13z"/>
   <path class="fil3 str0" d="m3515 2352c-91 0-164 74-164 164s73 164 164 164c90 0 164-74 164-164s-74-164-164-164zm-54 218c-14-14-22-33-22-54s8-40 22-54 33-22 54-22 40 8 54 22c13 14 22 33 22 54s-9 40-22 54c-14 14-33 22-54 22s-40-8-54-22z"/>
   <path class="fil2" d="m3499 568v41h-132v-35c39-63 63-103 70-118s11-27 11-36c0-6-1-11-3-14-3-4-6-5-11-5-4 0-8 1-10 5s-3 11-3 21v23h-54v-9c0-13 1-24 2-32 1-7 5-15 10-23 6-7 13-13 22-17 8-3 19-5 31-5 24 0 42 6 54 17 12 12 19 27 19 45 0 14-4 29-11 44s-27 48-61 98h66zm165-118v80c0 18-1 31-3 40-2 8-6 16-12 23-7 7-14 13-23 16s-19 4-29 4c-15 0-27-1-36-5-10-3-17-8-23-15s-10-15-12-22c-2-8-4-20-4-37v-84c0-22 2-39 6-50s12-20 23-26c11-7 25-10 41-10 13 0 25 2 35 6 11 5 19 11 24 17 5 7 8 14 10 23 2 8 3 21 3 40zm-60-20c0-13-1-21-2-24-1-4-4-5-9-5-4 0-7 1-8 5-2 3-3 11-3 24v117c0 14 1 22 2 25 2 3 5 4 9 4 5 0 8-1 9-5 1-3 2-11 2-22v-119z"/>
   <path class="fil2" d="m4198 470v241h-60v-129c0-19-1-30-1-34-1-4-4-7-8-9s-13-3-27-3h-6v-27c29-7 51-19 66-39h36z"/>
   <path class="fil2" d="m4665 748v241h-60v-129c0-19-1-30-1-34-1-4-4-7-8-9-4-1-13-2-27-2h-5v-28c29-7 51-19 66-39h35zm138 104c9 4 16 9 20 16 5 8 7 24 7 51 0 19-1 34-5 43s-11 17-22 23-26 9-44 9-32-3-42-9c-11-6-18-13-23-22-4-10-7-25-7-47 0-14 1-27 4-38 2-11 9-19 21-26-8-3-13-9-17-17-4-7-6-17-6-29 0-21 6-36 18-47 11-10 28-15 51-15 27 0 45 5 55 16s15 27 15 47c0 13-1 23-5 28-3 6-10 12-20 17zm-34-51c0-8 0-14-2-16-1-3-4-4-8-4s-7 1-8 4c-2 3-2 8-2 16v18c0 7 0 12 2 15s4 4 8 4 7-1 8-4c2-2 2-8 2-17v-16zm1 100c0-9-1-16-2-19-2-3-5-4-9-4s-7 1-9 4-3 9-3 19v31c0 10 1 17 3 20s5 4 9 4c5 0 8-1 9-4 2-3 2-10 2-21v-30z"/>
   <path class="fil2" d="m5206 1195v157h17v41h-17v43h-60v-43h-72v-41l52-157h80zm-60 157v-102l-27 102h27z"/>
   <path class="fil2" d="m5409 1755v241h-60v-129c0-19 0-30-1-34s-4-7-8-8c-4-2-12-3-26-3h-6v-28c29-6 51-19 66-39h35zm136 105c9 3 16 8 20 15 5 7 7 23 7 49 0 19-2 34-6 45-5 10-12 18-23 24-11 5-24 8-41 8-19 0-34-3-45-10-11-6-18-14-21-23-4-9-5-26-5-49v-19h60v40c0 10 0 17 1 20 2 2 4 4 9 4 4 0 7-2 9-6 1-3 2-12 2-28v-16c0-9-1-16-3-20-2-5-5-8-9-9s-12-2-24-2v-35c15 0 23-1 27-2 3-1 5-3 7-7 1-4 2-9 2-17v-13c0-9-1-14-2-17-2-3-5-4-9-4s-7 1-8 4c-2 3-2 9-2 18v20h-60v-21c0-23 5-38 15-46 11-8 28-12 50-12 29 0 48 5 59 17 10 11 15 26 15 46 0 14-2 23-5 29-4 6-11 12-20 17z"/>
   <path class="fil2" d="m5614 2460h-60v-21c-1-3-2-6-4-8s-5-3-9-3c-3 0-5 1-7 3s-4 4-4 7v57c3-7 7-12 13-15s14-5 22-5c11 0 21 3 29 9 9 6 14 13 17 22 2 8 3 19 3 33v20c0 16-1 29-2 37s-5 16-10 23c-6 7-14 12-23 16-10 4-21 6-34 6-17 0-30-2-40-7-10-4-18-11-24-19s-9-17-10-26-1-27-1-54v-33c0-29 0-48 1-58 1-9 4-18 10-27s15-15 25-19c11-5 23-7 36-7 17 0 31 3 42 8 11 6 18 13 23 23s7 23 7 38zm-60 75c0-9-1-15-3-18s-5-4-9-4-7 1-9 4-3 9-3 18v43c0 11 1 18 3 21 1 3 4 5 9 5 2 0 5-1 8-4 3-2 4-9 4-20v-45z"/>
   <path class="fil2" d="m5415 3015v241h-60v-129c0-19 0-30-1-34s-3-7-7-9c-4-1-13-2-27-2h-6v-28c29-7 51-19 66-39h35zm165 82v80c0 18-1 31-3 40-2 8-6 16-12 23s-14 13-23 16-18 4-29 4c-15 0-27-1-36-4-10-4-17-9-23-16-5-7-9-14-12-22-2-8-3-20-3-37v-84c0-22 2-39 5-50 4-11 12-20 23-26 11-7 25-10 41-10 13 0 25 2 36 7 10 4 18 10 23 16 5 7 9 15 10 23 2 8 3 21 3 40zm-60-20c0-13 0-21-2-24-1-4-4-5-8-5-5 0-8 1-9 5-2 3-2 11-2 24v117c0 14 0 22 2 25 1 3 4 4 8 4 5 0 8-1 9-5 1-3 2-11 2-22v-119z"/>
   <path class="fil2" d="m5129 3576v241h-60v-130c0-18 0-30-1-33-1-4-3-7-7-9s-13-3-27-3h-6v-28c29-6 51-19 66-38h35zm155 0v38h-75v41c10-11 22-16 36-16 17 0 30 4 38 14 8 9 13 27 13 53v34c0 17-1 30-3 38-1 8-5 15-10 22-6 7-13 12-23 16-9 3-21 5-35 5-15 0-29-3-41-8-11-5-20-13-25-24s-7-27-7-50v-13h60v15c0 16 0 27 1 33 2 7 5 10 12 10 3 0 5-1 7-3s3-4 3-6 1-12 1-28v-48c0-9-1-15-3-18s-5-5-10-5c-2 0-5 1-7 2-2 2-3 4-3 6-1 2-1 6-1 13h-60l3-121h129z"/>
   <path class="fil2" d="m4769 4239v41h-132l1-35c39-64 62-103 69-118 8-16 11-27 11-36 0-6-1-11-3-15-2-3-6-4-10-4-5 0-8 1-10 5-3 4-4 11-4 21v23h-54v-9c0-13 1-24 3-32 1-7 4-15 10-23 5-7 12-13 21-17s19-5 31-5c24 0 42 5 55 17 12 12 18 27 18 45 0 14-3 29-10 44s-28 48-61 98h65z"/>
   <path class="fil2" d="m4118 4328v241h-60v-130c0-18-1-29-1-33-1-4-4-7-8-9s-13-3-26-3h-6v-28c29-6 51-19 66-38h35zm129 0v52l-38 189h-60l43-198h-60v-43h115z"/>
   <path class="fil2" d="m3553 4527c9 3 16 8 20 15 5 7 7 24 7 49 0 20-2 34-7 45-4 11-12 19-22 24-11 6-25 8-41 8-19 0-34-3-45-9-11-7-18-15-22-24-3-9-5-25-5-48v-19h60v39c0 10 1 17 2 20s4 4 8 4c5 0 8-2 10-5 1-4 2-13 2-28v-17c0-9-1-16-3-20s-5-7-9-8c-5-2-12-3-24-3v-35c14 0 23 0 26-1 4-2 6-4 8-8 1-3 2-9 2-17v-13c0-8-1-14-3-17-2-2-4-4-8-4s-7 2-8 4c-2 3-3 9-3 19v19h-60v-20c0-23 6-39 16-47 11-8 27-12 50-12 29 0 48 6 58 17 11 11 16 27 16 47 0 13-2 23-6 29s-10 11-19 16z"/>
   <path class="fil2" d="m2851 4323v240h-60v-129c0-19-1-30-2-34-1-3-3-6-7-8s-13-3-27-3h-6v-28c29-6 51-19 66-38h36zm23 176h60v22c1 3 2 5 4 7s5 3 9 3c3 0 5-1 7-3s4-4 4-7v-56c-3 6-7 11-13 14s-14 5-22 5c-11 0-21-3-30-9-8-6-13-13-16-21-2-9-3-20-3-34v-19c0-17 1-30 2-38s5-16 10-23c6-7 14-12 23-16 10-4 22-6 35-6 16 0 29 2 39 7 10 4 18 11 24 19s9 17 10 26c1 10 1 27 1 54v33c0 29 0 48-1 58-1 9-4 19-10 27-6 9-15 15-25 20-11 4-23 6-36 6-17 0-31-3-42-8s-18-13-23-23-7-23-7-38zm60-75c0 11 1 17 4 19 3 3 5 4 8 4 4 0 7-2 9-5s3-9 3-18v-43c0-11-1-18-3-21-1-3-4-5-9-5-2 0-5 1-8 4-3 2-4 9-4 20v45z"/>
   <polygon class="fil2" points="2386 4041 2386 4093 2348 4282 2288 4282 2331 4084 2272 4084 2272 4041"/>
   <path class="fil2" d="m2955 462v38h-75v41c10-11 22-16 36-16 17 0 30 5 38 14 9 9 13 27 13 53v35c0 17-1 29-3 37-1 8-5 15-10 22s-13 12-23 16c-9 3-21 5-35 5-15 0-29-2-40-8-12-5-21-13-26-24s-7-27-7-50v-13h60v15c0 16 0 27 2 33 1 7 4 10 11 10 3 0 5-1 7-3s3-4 3-6c1-2 1-11 1-28v-48c0-9-1-15-3-18s-5-5-9-5c-3 0-6 1-8 3-2 1-3 3-3 5-1 2-1 6-1 13h-59l2-121h129z"/>
</svg>